<svg width="828" height="806" viewBox="0 0 828 806" fill="none" xmlns="http://www.w3.org/2000/svg">
<ellipse cx="401.5" cy="715.73" rx="401.5" ry="89.5" fill="#CBCBCB"/>
<ellipse cx="426.456" cy="349.708" rx="241.5" ry="311.988" transform="rotate(93.8933 426.456 349.708)" fill="#EBEFFF"/>
<ellipse cx="657.99" cy="229.647" rx="114" ry="147.274" transform="rotate(93.8933 657.99 229.647)" fill="#EBEFFF"/>
<ellipse cx="673.173" cy="406.089" rx="114" ry="147.274" transform="rotate(93.8933 673.173 406.089)" fill="#EBEFFF"/>
<ellipse cx="517.142" cy="529.78" rx="114" ry="147.274" transform="rotate(93.8933 517.142 529.78)" fill="#EBEFFF"/>
<ellipse cx="280.052" cy="512.64" rx="114" ry="147.274" transform="rotate(93.8933 280.052 512.64)" fill="#EBEFFF"/>
<ellipse cx="163.927" cy="354.389" rx="114" ry="147.274" transform="rotate(93.8933 163.927 354.389)" fill="#EBEFFF"/>
<ellipse cx="213.322" cy="180.343" rx="114" ry="147.274" transform="rotate(93.8933 213.322 180.343)" fill="#EBEFFF"/>
<ellipse cx="456.724" cy="123.737" rx="114" ry="147.274" transform="rotate(93.8933 456.724 123.737)" fill="#EBEFFF"/>
<ellipse cx="500.596" cy="264.559" rx="36.5" ry="51.4111" transform="rotate(7.57473 500.596 264.559)" fill="white"/>
<path d="M473.926 268.782C473.174 265.772 474.694 262.642 477.571 261.482C487.942 257.304 496.621 255.228 510.665 253.392C513.759 252.988 516.647 254.991 517.402 258.018C518.316 261.68 515.769 265.29 512.028 265.797C500.383 267.374 492.425 269.567 482.445 273.231C478.841 274.555 474.856 272.507 473.926 268.782Z" fill="#0E2764"/>
<rect x="474.972" y="263.805" width="45.5399" height="10.0082" rx="5.0041" transform="rotate(7.55025 474.972 263.805)" fill="#0E2764"/>
<path d="M474.231 267.222C476.064 264.061 480.268 263.273 483.198 265.455C492.16 272.126 499.186 276.117 509.993 280.888C513.249 282.326 514.585 286.265 512.799 289.344C511.332 291.874 508.228 292.953 505.526 291.836C492.178 286.321 484.282 281.967 475.475 274.638C473.29 272.82 472.805 269.681 474.231 267.222Z" fill="#0E2764"/>
<ellipse cx="361.959" cy="236.004" rx="36.5" ry="51.4111" transform="rotate(7.57473 361.959 236.004)" fill="white"/>
<ellipse cx="368.132" cy="247.571" rx="17.5" ry="21" transform="rotate(4.61602 368.132 247.571)" fill="#0E2764"/>
<path d="M132.084 431.23H237V333.23C237 329.517 235.525 325.956 232.899 323.331C230.274 320.705 226.713 319.23 223 319.23H132C123.558 319.23 111 324.823 111 340.23V438.23C111 453.637 123.558 459.23 132 459.23H237V445.23H132.084C128.85 445.146 125 443.865 125 438.23C125 432.595 128.85 431.314 132.084 431.23ZM146 347.23H209V361.23H146V347.23Z" fill="black"/>
<ellipse cx="293.203" cy="333.896" rx="56" ry="32" transform="rotate(1.00564 293.203 333.896)" fill="#F3CAE5"/>
<ellipse cx="558.797" cy="359.564" rx="56" ry="32" transform="rotate(1.00564 558.797 359.564)" fill="#F3CAE5"/>
<path d="M358.681 322.015C359.973 313.135 369.451 308.03 377.745 311.455C414.361 326.577 439.456 329.857 475.473 325.853C484.362 324.865 492.006 332.403 490.718 341.253C489.798 347.573 484.503 352.366 478.119 352.542C434.876 353.735 407.498 349.867 367.532 336.524C361.451 334.494 357.758 328.358 358.681 322.015Z" fill="#0E2764"/>
</svg>
