<svg width="28" height="28" viewBox="0 0 28 28" fill="none" xmlns="http://www.w3.org/2000/svg">
<g clip-path="url(#clip0_2763_1144)">
<path d="M7.00008 11.666C5.71675 11.666 4.66675 12.716 4.66675 13.9993C4.66675 15.2827 5.71675 16.3327 7.00008 16.3327C8.28342 16.3327 9.33342 15.2827 9.33342 13.9993C9.33342 12.716 8.28342 11.666 7.00008 11.666ZM21.0001 11.666C19.7167 11.666 18.6667 12.716 18.6667 13.9993C18.6667 15.2827 19.7167 16.3327 21.0001 16.3327C22.2834 16.3327 23.3334 15.2827 23.3334 13.9993C23.3334 12.716 22.2834 11.666 21.0001 11.666ZM14.0001 11.666C12.7167 11.666 11.6667 12.716 11.6667 13.9993C11.6667 15.2827 12.7167 16.3327 14.0001 16.3327C15.2834 16.3327 16.3334 15.2827 16.3334 13.9993C16.3334 12.716 15.2834 11.666 14.0001 11.666Z" fill="#787878"/>
</g>
<defs>
<clipPath id="clip0_2763_1144">
<rect width="28" height="28" fill="white"/>
</clipPath>
</defs>
</svg>
