<svg width="40" height="40" viewBox="0 0 40 40" fill="none" xmlns="http://www.w3.org/2000/svg">
<circle cx="20" cy="20" r="20" fill="#0E2764"/>
<path fill-rule="evenodd" clip-rule="evenodd" d="M16.6667 15.8333C16.6667 14.9493 17.0179 14.1014 17.643 13.4763C18.2681 12.8512 19.1159 12.5 20 12.5C20.8841 12.5 21.7319 12.8512 22.357 13.4763C22.9821 14.1014 23.3333 14.9493 23.3333 15.8333C23.3333 16.7174 22.9821 17.5652 22.357 18.1904C21.7319 18.8155 20.8841 19.1667 20 19.1667C19.1159 19.1667 18.2681 18.8155 17.643 18.1904C17.0179 17.5652 16.6667 16.7174 16.6667 15.8333ZM16.6667 20.8333C15.5616 20.8333 14.5018 21.2723 13.7204 22.0537C12.939 22.8351 12.5 23.8949 12.5 25C12.5 25.663 12.7634 26.2989 13.2322 26.7678C13.7011 27.2366 14.337 27.5 15 27.5H25C25.663 27.5 26.2989 27.2366 26.7678 26.7678C27.2366 26.2989 27.5 25.663 27.5 25C27.5 23.8949 27.061 22.8351 26.2796 22.0537C25.4982 21.2723 24.4384 20.8333 23.3333 20.8333H16.6667Z" fill="white"/>
</svg>
